<?xml version="1.0" encoding="iso-8859-1"?>
<!-- Generator: Adobe Illustrator 16.0.0, SVG Export Plug-In . SVG Version: 6.00 Build 0)  -->
<!DOCTYPE svg PUBLIC "-//W3C//DTD SVG 1.1//EN" "http://www.w3.org/Graphics/SVG/1.1/DTD/svg11.dtd">
<svg version="1.1" id="Layer_1" xmlns="http://www.w3.org/2000/svg" xmlns:xlink="http://www.w3.org/1999/xlink" x="0px" y="0px"
	 width="502.268px" height="146.903px" viewBox="0 0 502.268 146.903" style="enable-background:new 0 0 502.268 146.903;"
	 xml:space="preserve">
<g>
	<g>
		<g>
			<path style="fill:#58595B;" d="M42.759,114.735c0,5.549,0.664,9.061,1.98,10.514c1.317,1.463,3.884,2.184,7.688,2.184h5.611
				v15.824H0.152v-15.824h5.521c3.928,0,6.562-0.789,7.912-2.387s2.026-5.031,2.026-10.311V71.212c0-5.341-0.827-4.041-2.178-5.639
				c-1.351-1.593-3.984-2.393-7.913-2.393H0V47.356l42.759-4.772V114.735z M12.854,14.895c0-4.122,1.43-7.633,4.277-10.539
				C19.983,1.454,23.434,0,27.485,0s7.519,1.454,10.4,4.355c2.881,2.906,4.321,6.417,4.321,10.539c0,4.255-1.424,7.841-4.276,10.778
				c-2.854,2.937-6.337,4.406-10.445,4.406s-7.58-1.47-10.399-4.406C14.261,22.735,12.854,19.149,12.854,14.895z"/>
		</g>
	</g>
	<path style="fill:#58595B;" d="M225.988,0.208V47.3h-19.973c-1.035-16.725-3.024-16.967-8.292-22.313
		c-5.273-5.341-18.067-7.288-36.064-7.288h-22.826v41.96h7.249c7.057,0,11.756-1.356,14.092-4.063
		c2.341-2.707,3.669-9.229,3.983-19.572h19.742v68.201h-19.742v-6.562c0-7.496-1.328-12.717-3.983-15.666
		c-2.656-2.955-7.351-4.43-14.092-4.43h-7.485v34.986c0,5.83,0.833,9.488,2.493,10.975c1.666,1.496,6.027,2.24,13.084,2.24h10.94
		v17.49H74.025v-17.49H83.3c6.979,0,11.317-0.744,13.022-2.24c1.699-1.486,2.555-5.145,2.555-10.975V30.924
		c0-5.83-0.855-9.494-2.555-10.985c-1.705-1.497-6.044-2.24-13.022-2.24h-9.274V0.208H225.988z"/>
	<path style="fill:#58595B;" d="M283.412,38.729c19.814,0,35.73,4.963,47.738,14.885c12.01,9.927,18.016,23.05,18.016,39.365
		c0,16.242-5.982,29.287-17.953,39.146c-11.969,9.848-27.986,14.777-48.043,14.777c-19.814,0-35.729-4.941-47.738-14.834
		c-12.01-9.895-18.015-22.916-18.015-39.09c0-16.387,6.022-29.522,18.076-39.416C247.542,43.676,263.514,38.729,283.412,38.729z
		 M283.412,55.387c-9.037,0-15.875,3.09-20.512,9.269c-4.638,6.18-6.956,15.234-6.956,27.175c0,13.113,2.257,22.838,6.774,29.152
		c4.52,6.314,11.42,9.477,20.693,9.477c9.111,0,15.91-3.096,20.389-9.275c4.48-6.168,6.719-15.645,6.719-28.418
		c0-12.629-2.217-22.021-6.656-28.167C299.422,58.46,292.607,55.387,283.412,55.387z"/>
	<path style="fill:#58595B;" d="M381.697,70.171c-4.92-4.648-9.297-7.771-13.141-9.37c-3.85-1.593-8.387-2.392-13.613-2.392V42.584
		h73.006v15.825h-2.617c-2.615,0-4.574,0.242-5.885,0.726c-1.307,0.489-1.959,1.182-1.959,2.082c0,0.692,0.371,1.581,1.125,2.656
		s1.846,2.308,3.27,3.697l10.23,10.411l13.676-11.874c0.951-0.833,1.66-1.666,2.139-2.499c0.473-0.832,0.715-1.626,0.715-2.392
		c0-0.974-0.518-1.716-1.547-2.239c-1.031-0.518-2.461-0.782-4.283-0.782c-0.793,0-1.385,0.022-1.785,0.056
		c-0.393,0.034-0.754,0.09-1.068,0.158V42.584h59.928l-0.117,15.825c-0.236-0.068-0.574-0.124-1.008-0.158
		c-0.439-0.033-1.131-0.056-2.082-0.056c-3.725,0-7.553,0.872-11.475,2.605c-3.922,1.739-8.229,4.474-12.904,8.222l-25.803,20.513
		l27.232,26.236c4.676,4.445,9.055,7.494,13.141,9.16c4.08,1.666,8.896,2.5,14.445,2.5h0.951v15.824h-76.936v-15.824h3.451
		c2.854,0,4.975-0.227,6.359-0.676c1.389-0.451,2.082-1.125,2.082-2.025c0-0.699-0.377-1.654-1.131-2.871
		c-0.756-1.203-1.723-2.375-2.91-3.479l-12.488-11.975L405.355,119c-1.268,1.047-2.318,2.105-3.146,3.174
		c-0.832,1.082-1.25,1.926-1.25,2.557c0,0.9,0.592,1.574,1.785,2.025c1.188,0.449,3.049,0.676,5.588,0.676h4.756v15.824h-63.023
		v-15.824h2.498c7.924,0,15.893-3.186,23.9-9.578c0.551-0.418,1.029-0.754,1.43-1.037l28.656-23.219L381.697,70.171z"/>
</g>
</svg>
